<svg version="1.1" xmlns="http://www.w3.org/2000/svg" xmlns:xlink="http://www.w3.org/1999/xlink">
	<defs>
		<symbol id="ab" viewBox="0 0 24 24"><path d="M6.934 9.493c1.158 0 2.015.284 2.57.852.568.557.85 1.4.85 2.557v4.078c0 .3-.1.54-.273.72-.182.167-.43.25-.75.25a1.04 1.04 0 0 1-.732-.267c-.182-.178-.272-.412-.272-.702v-.368a2.18 2.18 0 0 1-.92 1.02c-.4.245-.885.368-1.43.368-.556 0-1.06-.1-1.516-.334a2.68 2.68 0 0 1-1.073-.919A2.29 2.29 0 0 1 3 15.443c0-.602.153-1.075.46-1.42.318-.345.83-.596 1.533-.752s1.674-.234 2.912-.234h.426v-.384c0-.546-.12-.94-.358-1.187-.238-.256-.624-.384-1.158-.384-.33 0-.664.05-1.005.15-.34.1-.744.223-1.2.4-.295.145-.5.217-.647.217a.67.67 0 0 1-.511-.217c-.125-.145-.187-.334-.187-.568 0-.2.045-.35.136-.485.102-.145.267-.28.494-.4.397-.212.868-.38 1.413-.5.556-.123 1.1-.184 1.635-.184zm-.528 7.003c.568 0 1.027-.184 1.38-.55.363-.38.545-.864.545-1.454v-.35h-.307c-.76 0-1.35.033-1.77.1s-.72.184-.903.35-.272.396-.272.685a1.16 1.16 0 0 0 .375.886c.26.223.58.334.954.334zm10.9-7.003c.727 0 1.368.173 1.924.518s.988.836 1.294 1.47c.318.635.477 1.376.477 2.223s-.16 1.6-.477 2.256a3.5 3.5 0 0 1-1.311 1.504c-.556.357-1.192.535-1.907.535-.602 0-1.14-.128-1.618-.384-.465-.256-.823-.613-1.073-1.07v.418c0 .3-.097.54-.3.72s-.448.267-.766.267-.573-.1-.766-.267c-.182-.178-.272-.418-.272-.72V6.97a.91.91 0 0 1 .29-.702c.204-.178.465-.267.783-.267s.573.084.766.25.3.396.3.685v3.944a2.47 2.47 0 0 1 1.073-1.02c.465-.245.993-.368 1.584-.368zm-.562 6.886c.67 0 1.192-.234 1.567-.702s.562-1.125.562-1.972c0-.836-.187-1.476-.562-1.922-.363-.446-.886-.668-1.567-.668s-1.2.228-1.584.685c-.363.446-.545 1.092-.545 1.94s.182 1.5.545 1.955c.375.457.902.685 1.584.685z" fill="#52636c"/></symbol>
		<symbol id="attach" viewBox="0 0 24 24"><path fill-rule="evenodd" d="M9.012 22c-1.66 0-3.404-.627-4.53-2.006-1.75-2.148-1.96-4.724-.575-7.068.604-1.02 4.63-5.105 8.5-8.964l.896-.9c.877-.92 3.538-1.877 5.708.075 1.948 1.95 1.625 4.432.315 5.89-.37.4-3.833 4.008-7.173 7.474l-.903.938c-.4.428-1.218.907-2.095.902-.66-.014-1.263-.307-1.742-.848-1.29-1.496-.34-3.14.344-3.8l7.42-7.278a.75.75 0 0 1 1.078.023.79.79 0 0 1-.022 1.103L8.8 14.823c-.15.15-.866.93-.26 1.632.192.216.396.323.635.328.4.001.812-.265.975-.435l.906-.94 7.136-7.435c.566-.63 1.246-2.21-.23-3.7-1.59-1.43-3.38-.336-3.578-.128a121.93 121.93 0 0 1-.92.925c-1.896 1.896-7.667 7.666-8.252 8.656-1.043 1.764-.887 3.632.44 5.26 1.382 1.695 4.31 1.833 5.737.756a.55.55 0 0 1 .049-.034c1.132-.722 5.544-5.46 8.233-8.466a.75.75 0 0 1 1.078-.049c.31.29.333.784.048 1.102-.696.778-6.817 7.6-8.526 8.72-.854.634-2.036.976-3.263.976z" fill="#52636c"/></symbol>
		<symbol id="copy" viewBox="0 0 24 24"><path fill-rule="evenodd" d="M19.338 14.505c.128 0 .237-.112.237-.243V4.698c0-.13-.11-.243-.237-.243H9.975c-.128 0-.237.112-.237.243v9.565c0 .13.11.243.237.243h9.363zm-5.2 5.04c.062 0 .12-.058.12-.126V15.96H9.975c-.916 0-1.662-.766-1.662-1.698V9.495h-3.77c-.062 0-.12.058-.12.126v9.798c0 .068.052.126.12.126h9.596zM19.338 3H9.975c-.916 0-1.662.762-1.662 1.698V8.04h-3.77C3.693 8.04 3 8.748 3 9.62v9.798c0 .873.693 1.58 1.543 1.58h9.596c.85 0 1.543-.708 1.543-1.58V15.96h3.656c.916 0 1.662-.766 1.662-1.698V4.698C21 3.762 20.255 3 19.338 3z" fill="#52636c"/></symbol>
		<symbol id="image" viewBox="0 0 24 24"><path d="M2 7a3 3 0 0 1 3-3h14a3 3 0 0 1 3 3v10a3 3 0 0 1-3 3H5a3 3 0 0 1-3-3V7z" fill="#52636c"/><path d="M8.104 6.143c-.44 0-.895.072-1.206.267-.504.317-.65.935-.634 1.504.015.492.144 1.02.488 1.384.328.347 1.002.503 1.46.503.02 0 .043.015.043.044v.497c0 .05.037.087.085.087.026-.002.042-.01.055-.02l.687-.62c.214-.203.457-.4.624-.654.353-.512.406-1.237.3-1.837a1.32 1.32 0 0 0-1.078-1.074 3.99 3.99 0 0 0-.815-.082zM3.053 16.87v.042a2 2 0 0 0 1.998 2l13.893.015a2 2 0 0 0 2.002-2v-2.92l-3.068-3.274a2 2 0 0 0-2.919 0l-4.243 4.528-.87-.93a2 2 0 0 0-2.574-.293l-4.218 2.83z" fill="none"/></symbol>
		<symbol id="line-arrow-down" viewBox="0 0 24 24"><path fill-rule="evenodd" d="M11 16.64L2.4 9.097a1.12 1.12 0 0 1 0-1.737c.547-.48 1.434-.48 1.98 0L12 14.034l7.61-6.674c.547-.48 1.434-.48 1.98 0a1.12 1.12 0 0 1 0 1.737L13 16.64c-.274.24-.632.36-1 .36s-.717-.12-1-.36z" fill="#52636c"/></symbol>
		<symbol id="line-arrow-left" viewBox="0 0 24 24"><path fill-rule="evenodd" d="M7.36 11l7.543-8.6a1.12 1.12 0 0 1 1.737 0c.48.547.48 1.434 0 1.98L9.966 12l6.674 7.61c.48.547.48 1.434 0 1.98a1.12 1.12 0 0 1-1.737 0L7.36 13c-.24-.274-.36-.632-.36-1s.12-.717.36-1z" fill="#52636c"/></symbol>
		<symbol id="line-arrow-right" viewBox="0 0 24 24"><path fill-rule="evenodd" d="M16.64 11L9.097 2.4a1.12 1.12 0 0 0-1.737 0c-.48.547-.48 1.434 0 1.98L14.034 12 7.36 19.61c-.48.547-.48 1.434 0 1.98a1.12 1.12 0 0 0 1.737 0L16.64 13c.24-.274.36-.632.36-1s-.12-.717-.36-1z" fill="#52636c"/></symbol>
		<symbol id="line-arrow-up" viewBox="0 0 24 24"><path fill-rule="evenodd" d="M13 7.36l8.6 7.543a1.12 1.12 0 0 1 0 1.737c-.547.48-1.434.48-1.98 0L12 9.966 4.39 16.64c-.547.48-1.434.48-1.98 0a1.12 1.12 0 0 1 0-1.737L11 7.36c.274-.24.632-.36 1-.36s.717.12 1 .36z" fill="#52636c"/></symbol>
		<symbol id="send" viewBox="0 0 24 24"><path d="M4.66 3.12l15.493 7.547c1.128.55 1.128 2.118 0 2.667L4.66 20.88c-.763.372-1.66-.17-1.66-1l.66-5.512c.062-.514.478-.92 1.006-.98l8.17-.83a.56.56 0 0 0 0-1.112l-8.17-.83c-.528-.06-.944-.466-1.006-.98L3 4.12c0-.83.898-1.37 1.66-1z" fill="#52636c"/></symbol>
		<symbol id="smile" viewBox="0 0 24 24"><path fill-rule="evenodd" d="M3 12a9.01 9.01 0 0 1 9-9 9.01 9.01 0 0 1 9 9 9.01 9.01 0 0 1-9 9 9.01 9.01 0 0 1-9-9zm1.125 0c0 4.34 3.526 7.875 7.875 7.875 4.34 0 7.875-3.526 7.875-7.875 0-4.34-3.526-7.875-7.875-7.875-4.34 0-7.875 3.526-7.875 7.875z" fill="#52636c"/><path d="M8 13.905s1.8 2.2 3.992 2.2 4.046-2.136 4.046-2.136" stroke="#52636c" stroke-linecap="round"/><path d="M15.375 10.03c0-.466-.378-.844-.844-.844s-.844.378-.844.844.378.844.844.844.844-.378.844-.844zm-5.062 0c0-.466-.378-.844-.844-.844s-.844.378-.844.844.378.844.844.844.844-.378.844-.844z" fill="#52636c"/></symbol>
		<symbol id="tag" viewBox="0 0 24 24"><path fill-rule="evenodd" d="M14.237 3h5.072c.93 0 1.69.76 1.69 1.69v5.072c0 .93-.538 2.23-1.196 2.886l-7.857 7.857c-.658.658-1.734.658-2.39 0l-6.063-6.063c-.658-.658-.658-1.734 0-2.39l7.857-7.857C12.008 3.538 13.307 3 14.237 3zm1.138 3.938a1.69 1.69 0 0 0 1.688 1.687 1.69 1.69 0 0 0 1.688-1.687 1.69 1.69 0 0 0-1.687-1.688 1.69 1.69 0 0 0-1.687 1.688z" fill="#52636c"/></symbol>
		<symbol id="triangle-arrow-down" viewBox="0 0 24 24"><path d="M2 8l10 9 10-9H2z" fill="#52636c"/></symbol>
		<symbol id="triangle-arrow-left" viewBox="0 0 24 24"><path d="M16.5 21.5l-9-10 9-10v20z" fill="#52636c"/></symbol>
		<symbol id="triangle-arrow-right" viewBox="0 0 24 24"><path d="M7.5 1.5l9 10-9 10v-20z" fill="#52636c"/></symbol>
		<symbol id="triangle-arrow-up" viewBox="0 0 24 24"><path d="M2 16l10-9 10 9H2z" fill="#52636c"/></symbol>
		<symbol id="blip-logo-rounded" viewBox="0 0 24 24"><path d="M12 22c5.523 0 10-4.477 10-10S17.523 2 12 2 2 6.477 2 12s4.477 10 10 10z" fill="url(#A)"/><path fill-rule="evenodd" d="M11.834 5.88c-1.35 0-2.75.22-3.704.82-1.547.97-2 2.865-1.947 4.6.045 1.51.443 3.13 1.498 4.244 1.007 1.063 3.078 1.54 4.5 1.54a.13.13 0 0 1 .131.134v1.523c0 .15.115.267.262.267.01 0 .017-.002.024-.002.056-.005.105-.026.144-.06l2.11-1.898c.658-.622 1.404-1.26 1.918-2.005 1.086-1.57 1.247-3.8.887-5.63-.346-1.77-1.58-2.924-3.312-3.29-.712-.15-1.596-.25-2.502-.25zm0 .637c.81 0 1.654.084 2.375.236 1.534.325 2.538 1.317 2.826 2.792a8.47 8.47 0 0 1 .093 2.706c-.128.958-.423 1.776-.878 2.433-.39.564-.95 1.085-1.493 1.59l-.34.316-1.5 1.355v-.718c0-.425-.34-.77-.757-.77-1.34 0-3.21-.472-4.04-1.346-1.03-1.09-1.29-2.68-1.323-3.82-.033-1.105.137-3.1 1.65-4.048.744-.467 1.942-.724 3.375-.724z" fill="#fff"/><defs><linearGradient id="A" x1="9.02" y1="3.677" x2="19.803" y2="25.769" gradientUnits="userSpaceOnUse"><stop stop-color="#25dde0"/><stop offset=".662" stop-color="#22c6ca"/><stop offset="1" stop-color="#0ac8ff"/></linearGradient></defs></symbol>
		<symbol id="business-chat-logo-rounded" viewBox="0 0 24 24"><path d="M12 22c5.523 0 10-4.477 10-10S17.523 2 12 2 2 6.477 2 12s4.477 10 10 10z" fill="url(#A)"/><path fill-rule="evenodd" d="M10.54 16.12c-.544.28-1.407.574-2.6.88.547-.47.93-.937 1.147-1.397-1.534-.78-2.553-2.162-2.553-3.736 0-2.437 2.442-4.412 5.455-4.412s5.455 1.975 5.455 4.412-2.442 4.412-5.455 4.412c-.505 0-.995-.055-1.46-.16z" fill="#fff"/><defs><linearGradient id="A" x1="12" y1="2" x2="12" y2="22" gradientUnits="userSpaceOnUse"><stop stop-color="#5cff78"/><stop offset="1" stop-color="#00b705"/></linearGradient></defs></symbol>
		<symbol id="dialogflow-logo" viewBox="0 0 24 24"><path d="M4.006 6.95c.024-.15.06-.29.14-.42.464.156.86.44 1.28.68l6.346 3.6c.146.084.244.084.384.006l1.477-.83L19.81 6.47c.14.2.19.415.19.656v7.552a1.25 1.25 0 0 1-.665 1.143L8.68 21.886c-.067.042-.14.078-.207.114H8.35c-.275-.12-.36-.33-.36-.62l.012-3.394c0-.192-.055-.3-.232-.403L4.763 15.88c-.445-.247-.702-.602-.763-1.095l.006-7.834z" fill="#f16c00"/><path d="M19.81 6.476l-6.175 3.526-1.477.83c-.134.078-.238.078-.384-.006l-6.346-3.6c-.42-.24-.818-.524-1.28-.68.1-.27.323-.457.574-.596l6.566-3.737c.458-.26.934-.277 1.39-.018l6.67 3.797c.2.114.384.26.464.493z" fill="#f90"/></symbol>
		<symbol id="facebook-messenger-logo" viewBox="0 0 24 24"><linearGradient id="A" gradientUnits="userSpaceOnUse" x1="512" y1="11.5" x2="512" y2="1005.5"><stop offset="0" stop-color="#00b2ff"/><stop offset="1" stop-color="#006aff"/></linearGradient><g fill-rule="evenodd"><path d="M512 11.5c-280 0-497 205.1-497 482.1 0 144.9 59.4 270.1 156.1 356.6 8.1 7.3 13 17.4 13.4 28.3l2.7 88.4c.9 28.2 30 46.5 55.8 35.2l98.6-43.5c8.4-3.7 17.7-4.4 26.5-2 45.3 12.5 93.6 19.1 143.9 19.1 280 0 497-205.1 497-482.1S792 11.5 512 11.5z" fill="url(#A)"/><path d="M213.6 634.6l146-231.6c23.2-36.8 73-46 107.8-19.9l116.1 87.1c10.7 8 25.3 7.9 35.9-.1l156.8-119c20.9-15.9 48.3 9.2 34.2 31.4L664.5 614c-23.2 36.8-73 46-107.8 19.9l-116.1-87.1c-10.7-8-25.3-7.9-35.9.1L247.8 666c-20.9 15.9-48.3-9.2-34.2-31.4z" fill="#fff"/></g></symbol>
		<symbol id="infobip-logo" viewBox="0 0 24 24"><path d="M12 22c5.523 0 10-4.477 10-10S17.523 2 12 2 2 6.477 2 12s4.477 10 10 10z" fill="url(#A)"/><path fill-rule="evenodd" d="M14.776 5.46l-.295 1.964c-.012.07-.188.153-.29.154l-2.63.007c-.56 0-.66.095-.732.648l-.16 1.135c-.063.402.02.51.44.51l3.023.002-.247 1.828-.697 4.838-.255 1.67c-.015.086-.132.22-.203.22l-2.99.001c-.027 0-.054-.023-.12-.053l.222-1.566.944-6.543c.05-.355-.025-.444-.41-.447L6.89 9.828l.24-1.72c.07-.49.07-.5.557-.5l3.052.005c.304.004.443-.116.482-.407l.24-1.613c.013-.078.122-.198.188-.198l3.02.005c.018 0 .036.016.105.048z" fill="#fff"/><defs><linearGradient id="A" x1="12" y1="22" x2="7.457" y2="5.727" gradientUnits="userSpaceOnUse"><stop stop-color="#eb6405"/><stop offset="1" stop-color="#ff8d00"/></linearGradient></defs></symbol>
		<symbol id="mailgun-logo" viewBox="0 0 24 24"><path d="M12 22c5.523 0 10-4.477 10-10S17.523 2 12 2 2 6.477 2 12s4.477 10 10 10z" fill="url(#A)"/><g fill-rule="evenodd" fill="#fff"><path d="M8.4 8.86c-.736 0-1.333.597-1.333 1.333v3.317c0 .736.597 1.333 1.333 1.333H15.6c.736 0 1.333-.597 1.333-1.333v-3.317c0-.736-.597-1.333-1.333-1.333H8.4zM6.18 10.192c0-1.227.995-2.222 2.222-2.222H15.6c1.227 0 2.222.995 2.222 2.222v3.317c0 1.227-.995 2.222-2.222 2.222H8.4c-1.227 0-2.222-.995-2.222-2.222v-3.317z"/><path d="M7.264 9.463c-.19 0-.26.26-.102.367l4.484 3.096c.227.157.52.16.746 0l4.444-3.092c.22-.14-.004-.486-.208-.332l-4.444 3.093a.24.24 0 0 1-.33 0L7.37 9.497c-.032-.022-.07-.034-.107-.034z" stroke="#fff" stroke-width=".5"/></g><defs><linearGradient id="A" x1="21.541" y1="19.38" x2="6.049" y2="4.109" gradientUnits="userSpaceOnUse"><stop stop-color="#18a1d6"/><stop offset="1" stop-color="#0ac1ff"/></linearGradient></defs></symbol>
		<symbol id="skype-logo" viewBox="0 0 24 24"><path fill="#fff" d="M6.453 6.004H17.14v12.46H6.453z"/><path fill-rule="evenodd" d="M15.896 15.905c-.35.5-.865.9-1.542 1.172s-1.48.425-2.406.425c-1.113 0-2.03-.193-2.753-.58a3.56 3.56 0 0 1-1.249-1.113c-.32-.463-.48-.915-.48-1.354 0-.254.096-.472.288-.652s.437-.273.734-.273c.24 0 .445.07.61.212s.31.35.426.63c.144.33.3.606.466.826a1.85 1.85 0 0 0 .702.548c.303.143.7.216 1.192.216.676 0 1.226-.144 1.65-.435s.635-.65.635-1.085c0-.344-.115-.624-.342-.837s-.523-.378-.884-.49-.844-.234-1.45-.36c-.8-.173-1.488-.378-2.033-.61s-.98-.55-1.3-.954-.48-.904-.48-1.502c0-.57.168-1.077.508-1.52s.827-.784 1.468-1.022 1.394-.356 2.26-.356c.692 0 1.3.08 1.795.236s.923.368 1.256.63.577.536.73.823.23.568.23.84a.95.95 0 0 1-.288.676c-.192.2-.43.3-.718.3-.262 0-.46-.06-.596-.18s-.284-.317-.442-.6c-.205-.39-.45-.696-.74-.914s-.748-.33-1.383-.33c-.588 0-1.064.118-1.426.356s-.542.524-.542.86c0 .206.062.386.185.537s.292.28.508.388.432.193.653.255l1.093.268 1.725.452c.515.165.953.366 1.315.6a2.55 2.55 0 0 1 .846.895c.202.36.304.8.304 1.324 0 .626-.176 1.19-.527 1.69zm4.756-3.883a8.92 8.92 0 0 0-8.916-8.915c-.46 0-.91.044-1.35.112-.89-.76-2.04-1.22-3.3-1.22C4.277 2 2 4.275 2 7.084a5.05 5.05 0 0 0 1.024 3.05c-.13.6-.204 1.24-.204 1.89a8.92 8.92 0 0 0 8.915 8.917 8.93 8.93 0 0 0 1.845-.195 5.05 5.05 0 0 0 3.335 1.254C19.724 22 22 19.723 22 16.915a5.06 5.06 0 0 0-1.46-3.562 8.89 8.89 0 0 0 .111-1.331z" fill="#00aff0"/></symbol>
		<symbol id="sms-logo" viewBox="0 0 24 24"><path fill-rule="evenodd" d="M20.838 12.806c-.393 2.15-2.03 6.898-8.854 9.194 0 0 .478-.688.726-1.86-.234.02-.47.028-.7.028-4.963 0-9-4.075-9-9.084S7.037 2 12 2s9 4.075 9 9.084c0 .59-.056 1.165-.162 1.722z" fill="url(#A)"/><path d="M8.842 10.124a.78.78 0 0 0-.3-.23.85.85 0 0 0-.386-.096.84.84 0 0 0-.232.032.72.72 0 0 0-.21.09.49.49 0 0 0-.159.16c-.04.064-.058.142-.058.235a.44.44 0 0 0 .053.22.48.48 0 0 0 .143.155 1.05 1.05 0 0 0 .227.112l.3.096.37.133a1.38 1.38 0 0 1 .354.197c.1.082.197.185.264.3a.93.93 0 0 1 .106.464 1.21 1.21 0 0 1-.111.533 1.1 1.1 0 0 1-.296.373c-.123.1-.268.174-.433.224s-.34.075-.523.075a1.98 1.98 0 0 1-.713-.133 1.4 1.4 0 0 1-.571-.405l.476-.448a.96.96 0 0 0 .365.304c.155.075.306.112.454.112a1.16 1.16 0 0 0 .238-.027.64.64 0 0 0 .217-.101.52.52 0 0 0 .159-.171.5.5 0 0 0 .063-.26.4.4 0 0 0-.07-.245.61.61 0 0 0-.185-.17 1.5 1.5 0 0 0-.275-.128l-.333-.112a3.26 3.26 0 0 1-.338-.128 1.16 1.16 0 0 1-.306-.197c-.088-.082-.16-.18-.217-.3s-.085-.27-.085-.448a1 1 0 0 1 .116-.496 1.07 1.07 0 0 1 .312-.341 1.34 1.34 0 0 1 .439-.203 1.86 1.86 0 0 1 .502-.069 1.74 1.74 0 0 1 .576.101 1.44 1.44 0 0 1 .513.304l-.433.48zm1.128-.79H11l.972 2.683h.016l.962-2.683h1.046v3.776h-.66v-3.035h-.01L12.2 13.1h-.465l-1.12-3.035h-.01V13.1H9.97V9.335zm6.768.79a.78.78 0 0 0-.3-.23.92.92 0 0 0-.388-.094c-.077 0-.155.01-.232.032a.72.72 0 0 0-.21.09.49.49 0 0 0-.159.16c-.04.064-.058.142-.058.235a.44.44 0 0 0 .053.22.48.48 0 0 0 .143.155 1.05 1.05 0 0 0 .227.112l.3.096.37.133a1.38 1.38 0 0 1 .354.197.93.93 0 0 1 .37.773c0 .203-.037.38-.1.533a1.1 1.1 0 0 1-.296.373c-.123.1-.268.174-.433.224s-.34.075-.523.075a1.98 1.98 0 0 1-.713-.133 1.4 1.4 0 0 1-.571-.405l.476-.448a.96.96 0 0 0 .365.304c.155.075.306.112.454.112a1.16 1.16 0 0 0 .238-.027.64.64 0 0 0 .217-.101.52.52 0 0 0 .159-.171.5.5 0 0 0 .063-.26.4.4 0 0 0-.07-.245.62.62 0 0 0-.185-.17 1.47 1.47 0 0 0-.275-.128l-.333-.112a3.26 3.26 0 0 1-.338-.128 1.16 1.16 0 0 1-.306-.197c-.088-.082-.16-.18-.217-.3s-.085-.27-.085-.448a1 1 0 0 1 .116-.496 1.07 1.07 0 0 1 .312-.341 1.34 1.34 0 0 1 .439-.203 1.86 1.86 0 0 1 .502-.069 1.74 1.74 0 0 1 .576.101 1.44 1.44 0 0 1 .513.304l-.433.48z" fill="#fff"/><defs><linearGradient id="A" x1="7.244" y1="17.338" x2="21.638" y2="7.862" gradientUnits="userSpaceOnUse"><stop stop-color="#4063b0"/><stop offset="1" stop-color="#3f7be1"/></linearGradient></defs></symbol>
		<symbol id="telegram-logo" viewBox="0 0 24 24"><path d="M12.04 21.923c5.5 0 9.96-4.46 9.96-9.96S17.54 2 12.04 2s-9.96 4.46-9.96 9.96 4.46 9.96 9.96 9.96z" fill="url(#B)"/><g fill-rule="evenodd"><path d="M9.054 12.62l.996 2.846c.014.04.058.062.1.048.025-.01.044-.03.05-.056l.483-2.14 4.65-4.496L9.597 11.7l-.543.93z" fill="url(#C)"/><path d="M10.303 15.53l2.317-1.593-.775-1.163-1.163.465-.5 2.2c-.01.042.017.083.06.093.02.005.043.001.06-.012z" fill="#a9c9dd"/></g><g filter="url(#A)"><path fill-rule="evenodd" d="M9.21 13.008l5.27-3.643-1.008-.155-4.264 3.023v.775z" fill="#b8cee1"/></g><path fill-rule="evenodd" d="M7.27 11.273l8.46-3.18a.31.31 0 0 1 .412.356l-1.56 7.192a.31.31 0 0 1-.487.184l-3.342-2.473c-.07-.05-.083-.148-.032-.217.005-.007.01-.014.018-.02l3.587-3.424c.062-.06.064-.157.005-.22-.052-.055-.137-.064-.2-.02l-4.77 3.277c-.045.03-.103.036-.152.013l-1.955-.894a.31.31 0 0 1 .02-.572z" fill="url(#D)"/><defs><filter id="A" x="5.811" y="5.811" width="12.068" height="10.595" filterUnits="userSpaceOnUse" color-interpolation-filters="sRGB"><feFlood flood-opacity="0"/><feBlend in="SourceGraphic"/><feGaussianBlur stdDeviation="1.699"/></filter><linearGradient id="B" x1="12.039" y1="2" x2="12.039" y2="21.923" gradientUnits="userSpaceOnUse"><stop stop-color="#39b0e3"/><stop offset="1" stop-color="#1c93d2"/></linearGradient><linearGradient id="C" x1="11.644" y1="10.248" x2="12.252" y2="11.371" gradientUnits="userSpaceOnUse"><stop stop-color="#c1d5e7"/><stop offset="1" stop-color="#c8daea"/></linearGradient><linearGradient id="D" x1="16.15" y1="8.072" x2="6.162" y2="15.124" gradientUnits="userSpaceOnUse"><stop stop-color="#f8fcfe"/><stop offset="1" stop-color="#e3f1f9"/></linearGradient></defs></symbol>
		<symbol id="whatsapp-logo" viewBox="0 0 24 24"><path fill-rule="evenodd" d="M6.728 19.432l-3.395 1.235 1.35-3.238A9.07 9.07 0 0 1 2.889 12c0-5.032 4.08-9.11 9.11-9.11s9.11 4.08 9.11 9.11-4.08 9.11-9.11 9.11a9.07 9.07 0 0 1-5.272-1.679z" fill="url(#A)"/><path d="M22 11.742c0 5.38-4.395 9.743-9.818 9.743-1.722 0-3.34-.44-4.746-1.212L2 22l1.772-5.227a9.64 9.64 0 0 1-1.409-5.03C2.363 6.362 6.76 2 12.182 2S22 6.362 22 11.742zm-9.818-8.19c-4.552 0-8.255 3.674-8.255 8.19 0 1.792.584 3.452 1.572 4.802l-1.03 3.042 3.172-1.008a8.25 8.25 0 0 0 4.542 1.355c4.55 0 8.255-3.674 8.255-8.2s-3.703-8.19-8.255-8.19zm4.958 10.435c-.06-.1-.22-.16-.46-.28s-1.424-.697-1.644-.777-.382-.12-.542.12-.622.777-.762.936-.28.18-.522.06-1.016-.372-1.935-1.185c-.715-.633-1.198-1.414-1.34-1.653s-.015-.368.106-.487c.108-.107.24-.28.36-.418s.16-.24.24-.398.04-.3-.02-.418-.542-1.294-.742-1.773-.4-.398-.54-.398-.3-.02-.46-.02-.42.06-.642.3-.842.817-.842 1.992.862 2.3.983 2.47 1.664 2.65 4.11 3.605 2.447.637 2.888.597 1.424-.578 1.625-1.135.2-1.036.14-1.136z" fill="#fff"/><defs><linearGradient id="A" x1="12" y1="2.889" x2="12" y2="21.111" gradientUnits="userSpaceOnUse"><stop stop-color="#5cfb7a"/><stop offset="1" stop-color="#00b824"/></linearGradient></defs></symbol>
		<symbol id="workplace-logo" viewBox="0 0 24 24"><g fill-rule="evenodd"><path d="M6.588 20.4l-4.123 1.125.898-4.49C2.497 15.563 2 13.84 2 12 2 6.477 6.477 2 12 2s10 4.477 10 10-4.477 10-10 10c-1.994 0-3.852-.584-5.412-1.6z" fill="url(#A)"/><path d="M11.765 4.326h1.122c2.06.192 4 1.337 5.105 3.1 1.583 2.408 1.364 5.848-.558 8.004-.533.622-1.625.464-1.95-.3l-1.472-3.592-1.403 3.467c-.217.6-.952 1.004-1.562.722-.462-.173-.68-.647-.854-1.07L8.118 9.512 9.8 9.5l1.68 4.152 1.247-3.122c.186-.468.43-.994.954-1.153.577-.217 1.203.194 1.422.727l1.556 3.8c.545-.93.888-2 .83-3.078-.058-2.39-1.995-4.57-4.365-4.9-2.82-.426-5.69 1.506-6.5 4.21-.796 2.394.11 5.2 2.124 6.708 1.456 1.172 3.457 1.55 5.25 1.03l-.002 1.604-1.005.174h-1.147C9.91 19.5 8.04 18.6 6.755 17.142c-1.143-1.25-1.786-2.89-1.965-4.562v-1.1c.157-1.696.812-3.36 1.967-4.626 1.268-1.45 3.108-2.316 5.008-2.53z" fill="#fff"/></g><defs><linearGradient id="A" x1="12" y1="2" x2="12" y2="22" gradientUnits="userSpaceOnUse"><stop stop-color="#03c9ff"/><stop offset="1" stop-color="#0780fc"/></linearGradient></defs></symbol>
	</defs>
</svg>
