<svg xmlns="http://www.w3.org/2000/svg" width="24" height="24" fill="none"><path d="M12 22c5.523 0 10-4.477 10-10S17.523 2 12 2 2 6.477 2 12s4.477 10 10 10z" fill="url(#A)"/><path fill-rule="evenodd" d="M11.834 5.88c-1.35 0-2.75.22-3.704.82-1.547.97-2 2.865-1.947 4.6.045 1.51.443 3.13 1.498 4.244 1.007 1.063 3.078 1.54 4.5 1.54a.13.13 0 0 1 .131.134v1.523c0 .15.115.267.262.267.01 0 .017-.002.024-.002.056-.005.105-.026.144-.06l2.11-1.898c.658-.622 1.404-1.26 1.918-2.005 1.086-1.57 1.247-3.8.887-5.63-.346-1.77-1.58-2.924-3.312-3.29-.712-.15-1.596-.25-2.502-.25zm0 .637c.81 0 1.654.084 2.375.236 1.534.325 2.538 1.317 2.826 2.792a8.47 8.47 0 0 1 .093 2.706c-.128.958-.423 1.776-.878 2.433-.39.564-.95 1.085-1.493 1.59l-.34.316-1.5 1.355v-.718c0-.425-.34-.77-.757-.77-1.34 0-3.21-.472-4.04-1.346-1.03-1.09-1.29-2.68-1.323-3.82-.033-1.105.137-3.1 1.65-4.048.744-.467 1.942-.724 3.375-.724z" fill="#fff"/><defs><linearGradient id="A" x1="9.02" y1="3.677" x2="19.803" y2="25.769" gradientUnits="userSpaceOnUse"><stop stop-color="#25dde0"/><stop offset=".662" stop-color="#22c6ca"/><stop offset="1" stop-color="#0ac8ff"/></linearGradient></defs></svg>