<svg xmlns="http://www.w3.org/2000/svg" width="24" height="24" fill="none"><path d="M12.04 21.923c5.5 0 9.96-4.46 9.96-9.96S17.54 2 12.04 2s-9.96 4.46-9.96 9.96 4.46 9.96 9.96 9.96z" fill="url(#B)"/><g fill-rule="evenodd"><path d="M9.054 12.62l.996 2.846c.014.04.058.062.1.048.025-.01.044-.03.05-.056l.483-2.14 4.65-4.496L9.597 11.7l-.543.93z" fill="url(#C)"/><path d="M10.303 15.53l2.317-1.593-.775-1.163-1.163.465-.5 2.2c-.01.042.017.083.06.093.02.005.043.001.06-.012z" fill="#a9c9dd"/></g><g filter="url(#A)"><path fill-rule="evenodd" d="M9.21 13.008l5.27-3.643-1.008-.155-4.264 3.023v.775z" fill="#b8cee1"/></g><path fill-rule="evenodd" d="M7.27 11.273l8.46-3.18a.31.31 0 0 1 .412.356l-1.56 7.192a.31.31 0 0 1-.487.184l-3.342-2.473c-.07-.05-.083-.148-.032-.217.005-.007.01-.014.018-.02l3.587-3.424c.062-.06.064-.157.005-.22-.052-.055-.137-.064-.2-.02l-4.77 3.277c-.045.03-.103.036-.152.013l-1.955-.894a.31.31 0 0 1 .02-.572z" fill="url(#D)"/><defs><filter id="A" x="5.811" y="5.811" width="12.068" height="10.595" filterUnits="userSpaceOnUse" color-interpolation-filters="sRGB"><feFlood flood-opacity="0"/><feBlend in="SourceGraphic"/><feGaussianBlur stdDeviation="1.699"/></filter><linearGradient id="B" x1="12.039" y1="2" x2="12.039" y2="21.923" gradientUnits="userSpaceOnUse"><stop stop-color="#39b0e3"/><stop offset="1" stop-color="#1c93d2"/></linearGradient><linearGradient id="C" x1="11.644" y1="10.248" x2="12.252" y2="11.371" gradientUnits="userSpaceOnUse"><stop stop-color="#c1d5e7"/><stop offset="1" stop-color="#c8daea"/></linearGradient><linearGradient id="D" x1="16.15" y1="8.072" x2="6.162" y2="15.124" gradientUnits="userSpaceOnUse"><stop stop-color="#f8fcfe"/><stop offset="1" stop-color="#e3f1f9"/></linearGradient></defs></svg>