<svg xmlns="http://www.w3.org/2000/svg" width="24" height="24" fill="none"><path d="M12 22a10 10 0 1 0 0-20 10 10 0 1 0 0 20z" fill="url(#A)"/><path fill-rule="evenodd" d="M14.776 5.46l-.295 1.964c-.012.07-.188.153-.3.154l-2.63.007c-.56 0-.66.095-.732.648l-.16 1.135c-.063.402.02.5.44.5l3.023.002-.247 1.828-.697 4.838-.255 1.67c-.015.086-.132.22-.203.22l-3 .001c-.027 0-.054-.023-.12-.053l.222-1.566.944-6.543c.05-.355-.025-.444-.4-.447H6.9l.24-1.72c.07-.5.07-.5.557-.5l3.052.005c.304.004.443-.116.482-.407l.24-1.613c.013-.078.122-.198.188-.198l3.02.005c.018 0 .036.016.105.048z" fill="#fff"/><defs><linearGradient id="A" x1="12" y1="22" x2="7.457" y2="5.727" gradientUnits="userSpaceOnUse"><stop stop-color="#eb6405"/><stop offset="1" stop-color="#ff8d00"/></linearGradient></defs></svg>