<svg xmlns="http://www.w3.org/2000/svg" width="24" height="24" fill="none"><path fill-rule="evenodd" d="M6.728 19.432l-3.395 1.235 1.35-3.238A9.07 9.07 0 0 1 2.889 12c0-5.032 4.08-9.11 9.11-9.11s9.11 4.08 9.11 9.11-4.08 9.11-9.11 9.11a9.07 9.07 0 0 1-5.272-1.679z" fill="url(#A)"/><path d="M22 11.742c0 5.38-4.395 9.743-9.818 9.743-1.722 0-3.34-.44-4.746-1.212L2 22l1.772-5.227a9.64 9.64 0 0 1-1.409-5.03C2.363 6.362 6.76 2 12.182 2S22 6.362 22 11.742zm-9.818-8.19c-4.552 0-8.255 3.674-8.255 8.19 0 1.792.584 3.452 1.572 4.802l-1.03 3.042 3.172-1.008a8.25 8.25 0 0 0 4.542 1.355c4.55 0 8.255-3.674 8.255-8.2s-3.703-8.19-8.255-8.19zm4.958 10.435c-.06-.1-.22-.16-.46-.28s-1.424-.697-1.644-.777-.382-.12-.542.12-.622.777-.762.936-.28.18-.522.06-1.016-.372-1.935-1.185c-.715-.633-1.198-1.414-1.34-1.653s-.015-.368.106-.487c.108-.107.24-.28.36-.418s.16-.24.24-.398.04-.3-.02-.418-.542-1.294-.742-1.773-.4-.398-.54-.398-.3-.02-.46-.02-.42.06-.642.3-.842.817-.842 1.992.862 2.3.983 2.47 1.664 2.65 4.11 3.605 2.447.637 2.888.597 1.424-.578 1.625-1.135.2-1.036.14-1.136z" fill="#fff"/><defs><linearGradient id="A" x1="12" y1="2.889" x2="12" y2="21.111" gradientUnits="userSpaceOnUse"><stop stop-color="#5cfb7a"/><stop offset="1" stop-color="#00b824"/></linearGradient></defs></svg>