<svg xmlns="http://www.w3.org/2000/svg" width="24" height="24" fill="none"><path d="M12 22c5.523 0 10-4.477 10-10S17.523 2 12 2 2 6.477 2 12s4.477 10 10 10z" fill="url(#A)"/><path fill-rule="evenodd" d="M10.54 16.12c-.544.28-1.407.574-2.6.88.547-.47.93-.937 1.147-1.397-1.534-.78-2.553-2.162-2.553-3.736 0-2.437 2.442-4.412 5.455-4.412s5.455 1.975 5.455 4.412-2.442 4.412-5.455 4.412c-.505 0-.995-.055-1.46-.16z" fill="#fff"/><defs><linearGradient x1="12" y1="2" x2="12" y2="22" gradientUnits="userSpaceOnUse"><stop stop-color="#5cff78"/><stop offset="1" stop-color="#00b705"/></linearGradient></defs></svg>