<svg xmlns="http://www.w3.org/2000/svg" width="24" height="24" fill="none"><path d="M4.006 6.95a1.11 1.11 0 0 1 .14-.42c.464.156.86.44 1.28.68l6.346 3.6c.146.084.244.084.384.006l1.477-.83L19.8 6.47c.14.2.2.415.2.656v7.552a1.25 1.25 0 0 1-.665 1.143L8.68 21.886c-.067.042-.14.078-.207.114H8.35c-.275-.12-.36-.33-.36-.62l.012-3.394a.4.4 0 0 0-.232-.403L4.763 15.88c-.445-.247-.702-.602-.763-1.095l.006-7.834z" fill="#f16c00"/><path d="M19.8 6.476l-6.175 3.526-1.477.83c-.134.078-.238.078-.384-.006l-6.346-3.6c-.42-.24-.818-.524-1.28-.68.1-.27.323-.457.574-.596l6.566-3.737c.458-.26.934-.277 1.4-.018l6.67 3.797c.2.114.384.26.464.493z" fill="#f90"/></svg>