<svg xmlns="http://www.w3.org/2000/svg" width="24" height="24" fill="none" fill-rule="evenodd"><path d="M2 7a3 3 0 0 1 3-3h14a3 3 0 0 1 3 3v10a3 3 0 0 1-3 3H5a3 3 0 0 1-3-3V7z" fill="#52636c"/><path d="M8.104 6.143c-.44 0-.895.072-1.206.267-.504.317-.65.935-.634 1.504.015.492.144 1.02.488 1.384.328.347 1.002.503 1.46.503.02 0 .043.015.043.044v.497c0 .05.037.087.085.087.026-.002.042-.01.055-.02l.687-.62c.214-.203.457-.4.624-.654.353-.512.406-1.237.3-1.837a1.32 1.32 0 0 0-1.078-1.074 3.99 3.99 0 0 0-.815-.082zM3.053 16.87v.042a2 2 0 0 0 1.998 2l13.893.015a2 2 0 0 0 2.002-2v-2.92l-3.068-3.274a2 2 0 0 0-2.919 0l-4.243 4.528-.87-.93a2 2 0 0 0-2.574-.293l-4.218 2.83z" fill="#fff"/></svg>