<svg xmlns="http://www.w3.org/2000/svg" width="24" height="24" fill="none"><path d="M12 22c5.523 0 10-4.477 10-10S17.523 2 12 2 2 6.477 2 12s4.477 10 10 10z" fill="url(#A)"/><path fill-rule="evenodd" d="M14.776 5.46l-.295 1.964c-.012.07-.188.153-.29.154l-2.63.007c-.56 0-.66.095-.732.648l-.16 1.135c-.063.402.02.51.44.51l3.023.002-.247 1.828-.697 4.838-.255 1.67c-.015.086-.132.22-.203.22l-2.99.001c-.027 0-.054-.023-.12-.053l.222-1.566.944-6.543c.05-.355-.025-.444-.41-.447L6.89 9.828l.24-1.72c.07-.49.07-.5.557-.5l3.052.005c.304.004.443-.116.482-.407l.24-1.613c.013-.078.122-.198.188-.198l3.02.005c.018 0 .036.016.105.048z" fill="#fff"/><defs><linearGradient x1="12" y1="22" x2="7.457" y2="5.727" gradientUnits="userSpaceOnUse"><stop stop-color="#eb6405"/><stop offset="1" stop-color="#ff8d00"/></linearGradient></defs></svg>