<svg xmlns="http://www.w3.org/2000/svg" width="24" height="24" fill="none"><path d="M12 22c5.523 0 10-4.477 10-10S17.523 2 12 2 2 6.477 2 12s4.477 10 10 10z" fill="url(#A)"/><g fill-rule="evenodd" fill="#fff"><path d="M8.4 8.86c-.736 0-1.333.597-1.333 1.333v3.317c0 .736.597 1.333 1.333 1.333H15.6c.736 0 1.333-.597 1.333-1.333v-3.317c0-.736-.597-1.333-1.333-1.333H8.4zM6.18 10.192c0-1.227.995-2.222 2.222-2.222H15.6c1.227 0 2.222.995 2.222 2.222v3.317c0 1.227-.995 2.222-2.222 2.222H8.4c-1.227 0-2.222-.995-2.222-2.222v-3.317z"/><path d="M7.264 9.463c-.19 0-.26.26-.102.367l4.484 3.096c.227.157.52.16.746 0l4.444-3.092c.22-.14-.004-.486-.208-.332l-4.444 3.093a.24.24 0 0 1-.33 0L7.37 9.497c-.032-.022-.07-.034-.107-.034z" stroke="#fff" stroke-width=".5"/></g><defs><linearGradient x1="21.541" y1="19.38" x2="6.049" y2="4.109" gradientUnits="userSpaceOnUse"><stop stop-color="#18a1d6"/><stop offset="1" stop-color="#0ac1ff"/></linearGradient></defs></svg>