<svg xmlns="http://www.w3.org/2000/svg" width="24" height="24" fill="none"><path fill-rule="evenodd" d="M20.838 12.806c-.393 2.15-2.03 6.898-8.854 9.194 0 0 .478-.688.726-1.86-.234.02-.47.028-.7.028-4.963 0-9-4.075-9-9.084S7.037 2 12 2s9 4.075 9 9.084c0 .59-.056 1.165-.162 1.722z" fill="url(#A)"/><path d="M8.842 10.124a.78.78 0 0 0-.3-.23.85.85 0 0 0-.386-.096.84.84 0 0 0-.232.032.72.72 0 0 0-.21.09.49.49 0 0 0-.159.16c-.04.064-.058.142-.058.235a.44.44 0 0 0 .053.22.48.48 0 0 0 .143.155 1.05 1.05 0 0 0 .227.112l.3.096.37.133a1.38 1.38 0 0 1 .354.197c.1.082.197.185.264.3a.93.93 0 0 1 .106.464 1.21 1.21 0 0 1-.111.533 1.1 1.1 0 0 1-.296.373c-.123.1-.268.174-.433.224s-.34.075-.523.075a1.98 1.98 0 0 1-.713-.133 1.4 1.4 0 0 1-.571-.405l.476-.448a.96.96 0 0 0 .365.304c.155.075.306.112.454.112a1.16 1.16 0 0 0 .238-.027.64.64 0 0 0 .217-.101.52.52 0 0 0 .159-.171.5.5 0 0 0 .063-.26.4.4 0 0 0-.07-.245.61.61 0 0 0-.185-.17 1.5 1.5 0 0 0-.275-.128l-.333-.112a3.26 3.26 0 0 1-.338-.128 1.16 1.16 0 0 1-.306-.197c-.088-.082-.16-.18-.217-.3s-.085-.27-.085-.448a1 1 0 0 1 .116-.496 1.07 1.07 0 0 1 .312-.341 1.34 1.34 0 0 1 .439-.203 1.86 1.86 0 0 1 .502-.069 1.74 1.74 0 0 1 .576.101 1.44 1.44 0 0 1 .513.304l-.433.48zm1.128-.79H11l.972 2.683h.016l.962-2.683h1.046v3.776h-.66v-3.035h-.01L12.2 13.1h-.465l-1.12-3.035h-.01V13.1H9.97V9.335zm6.768.79a.78.78 0 0 0-.3-.23.92.92 0 0 0-.388-.094c-.077 0-.155.01-.232.032a.72.72 0 0 0-.21.09.49.49 0 0 0-.159.16c-.04.064-.058.142-.058.235a.44.44 0 0 0 .053.22.48.48 0 0 0 .143.155 1.05 1.05 0 0 0 .227.112l.3.096.37.133a1.38 1.38 0 0 1 .354.197.93.93 0 0 1 .37.773c0 .203-.037.38-.1.533a1.1 1.1 0 0 1-.296.373c-.123.1-.268.174-.433.224s-.34.075-.523.075a1.98 1.98 0 0 1-.713-.133 1.4 1.4 0 0 1-.571-.405l.476-.448a.96.96 0 0 0 .365.304c.155.075.306.112.454.112a1.16 1.16 0 0 0 .238-.027.64.64 0 0 0 .217-.101.52.52 0 0 0 .159-.171.5.5 0 0 0 .063-.26.4.4 0 0 0-.07-.245.62.62 0 0 0-.185-.17 1.47 1.47 0 0 0-.275-.128l-.333-.112a3.26 3.26 0 0 1-.338-.128 1.16 1.16 0 0 1-.306-.197c-.088-.082-.16-.18-.217-.3s-.085-.27-.085-.448a1 1 0 0 1 .116-.496 1.07 1.07 0 0 1 .312-.341 1.34 1.34 0 0 1 .439-.203 1.86 1.86 0 0 1 .502-.069 1.74 1.74 0 0 1 .576.101 1.44 1.44 0 0 1 .513.304l-.433.48z" fill="#fff"/><defs><linearGradient x1="7.244" y1="17.338" x2="21.638" y2="7.862" gradientUnits="userSpaceOnUse"><stop stop-color="#4063b0"/><stop offset="1" stop-color="#3f7be1"/></linearGradient></defs></svg>