<svg xmlns="http://www.w3.org/2000/svg" width="24" height="24" fill="none"><g fill-rule="evenodd"><path d="M6.588 20.4l-4.123 1.125.898-4.5C2.497 15.563 2 13.84 2 12a10 10 0 1 1 20 0 10 10 0 0 1-10 10c-1.994 0-3.852-.584-5.412-1.6z" fill="url(#A)"/><path d="M11.765 4.326h1.122c2.06.192 4 1.337 5.105 3.1 1.583 2.408 1.364 5.848-.558 8.004-.533.622-1.625.464-1.95-.3l-1.472-3.592-1.403 3.467c-.217.6-.952 1.004-1.562.722-.462-.173-.68-.647-.854-1.07L8.118 9.512 9.8 9.5l1.68 4.152 1.247-3.122c.186-.468.43-.994.954-1.153.577-.217 1.203.194 1.422.727l1.556 3.8c.545-.93.888-2 .83-3.078-.058-2.4-1.995-4.57-4.365-4.9-2.82-.426-5.7 1.506-6.5 4.2-.796 2.394.1 5.2 2.124 6.708 1.456 1.172 3.457 1.55 5.25 1.03l-.002 1.604-1.005.174h-1.147C9.9 19.5 8.04 18.6 6.755 17.142c-1.143-1.25-1.786-2.9-1.965-4.562v-1.1c.157-1.696.812-3.36 1.967-4.626 1.268-1.45 3.108-2.316 5.008-2.53z" fill="#fff"/></g><defs><linearGradient id="A" x1="12" y1="2" x2="12" y2="22" gradientUnits="userSpaceOnUse"><stop stop-color="#03c9ff"/><stop offset="1" stop-color="#0780fc"/></linearGradient></defs></svg>