<svg xmlns="http://www.w3.org/2000/svg" width="24" height="24" fill="none"><path fill="#fff" d="M6.453 6.004H17.14v12.46H6.453z"/><path fill-rule="evenodd" d="M15.896 15.905c-.35.5-.865.9-1.542 1.172s-1.48.425-2.406.425c-1.113 0-2.03-.193-2.753-.58a3.56 3.56 0 0 1-1.249-1.113c-.32-.463-.48-.915-.48-1.354 0-.254.096-.472.288-.652s.437-.273.734-.273c.24 0 .445.07.61.212s.31.35.426.63c.144.33.3.606.466.826a1.85 1.85 0 0 0 .702.548c.303.143.7.216 1.192.216.676 0 1.226-.144 1.65-.435s.635-.65.635-1.085c0-.344-.115-.624-.342-.837s-.523-.378-.884-.49-.844-.234-1.45-.36c-.8-.173-1.488-.378-2.033-.61s-.98-.55-1.3-.954-.48-.904-.48-1.502c0-.57.168-1.077.508-1.52s.827-.784 1.468-1.022 1.394-.356 2.26-.356c.692 0 1.3.08 1.795.236s.923.368 1.256.63.577.536.73.823.23.568.23.84a.95.95 0 0 1-.288.676c-.192.2-.43.3-.718.3-.262 0-.46-.06-.596-.18s-.284-.317-.442-.6c-.205-.39-.45-.696-.74-.914s-.748-.33-1.383-.33c-.588 0-1.064.118-1.426.356s-.542.524-.542.86c0 .206.062.386.185.537s.292.28.508.388.432.193.653.255l1.093.268 1.725.452c.515.165.953.366 1.315.6a2.55 2.55 0 0 1 .846.895c.202.36.304.8.304 1.324 0 .626-.176 1.19-.527 1.69zm4.756-3.883a8.92 8.92 0 0 0-8.916-8.915c-.46 0-.91.044-1.35.112-.89-.76-2.04-1.22-3.3-1.22C4.277 2 2 4.275 2 7.084a5.05 5.05 0 0 0 1.024 3.05c-.13.6-.204 1.24-.204 1.89a8.92 8.92 0 0 0 8.915 8.917 8.93 8.93 0 0 0 1.845-.195 5.05 5.05 0 0 0 3.335 1.254C19.724 22 22 19.723 22 16.915a5.06 5.06 0 0 0-1.46-3.562 8.89 8.89 0 0 0 .111-1.331z" fill="#00aff0"/></svg>