<svg xmlns="http://www.w3.org/2000/svg" width="24" height="24" fill="none"><path fill-rule="evenodd" d="M19.338 14.505c.128 0 .237-.112.237-.243V4.698c0-.13-.11-.243-.237-.243H9.975c-.128 0-.237.112-.237.243v9.565c0 .13.11.243.237.243h9.363zm-5.2 5.04c.062 0 .12-.058.12-.126V15.96H9.975c-.916 0-1.662-.766-1.662-1.698V9.495h-3.77c-.062 0-.12.058-.12.126v9.798c0 .068.052.126.12.126h9.596zM19.338 3H9.975c-.916 0-1.662.762-1.662 1.698V8.04h-3.77C3.693 8.04 3 8.748 3 9.62v9.798c0 .873.693 1.58 1.543 1.58h9.596c.85 0 1.543-.708 1.543-1.58V15.96h3.656c.916 0 1.662-.766 1.662-1.698V4.698C21 3.762 20.255 3 19.338 3z" fill="#52636c"/></svg>