<svg xmlns="http://www.w3.org/2000/svg" width="24" height="24" fill="none"><path fill-rule="evenodd" d="M3 12a9.01 9.01 0 0 1 9-9 9.01 9.01 0 0 1 9 9 9.01 9.01 0 0 1-9 9 9.01 9.01 0 0 1-9-9zm1.125 0c0 4.34 3.526 7.875 7.875 7.875 4.34 0 7.875-3.526 7.875-7.875 0-4.34-3.526-7.875-7.875-7.875-4.34 0-7.875 3.526-7.875 7.875z" fill="#52636c"/><path d="M8 13.905s1.8 2.2 3.992 2.2 4.046-2.136 4.046-2.136" stroke="#738192" stroke-linecap="round"/><path d="M15.375 10.03c0-.466-.378-.844-.844-.844s-.844.378-.844.844.378.844.844.844.844-.378.844-.844zm-5.062 0c0-.466-.378-.844-.844-.844s-.844.378-.844.844.378.844.844.844.844-.378.844-.844z" fill="#52636c"/></svg>